0
SECTION
2
HEADER
9
$INSUNITS
70
4
9
$ACADVER
1
AC1014
9
$HANDSEED
5
FFFF
0
ENDSEC
0
SECTION
2
TABLES
0
TABLE
2
VPORT
5
8
100
AcDbSymbolTable
0
ENDTAB
0
TABLE
2
LTYPE
5
5
100
AcDbSymbolTable
0
LTYPE
5
14
100
AcDbSymbolTableRecord
100
AcDbLinetypeTableRecord
2
BYBLOCK
70
0
0
LTYPE
5
15
100
AcDbSymbolTableRecord
100
AcDbLinetypeTableRecord
2
BYLAYER
70
0
0
LTYPE
5
16
100
AcDbSymbolTableRecord
100
AcDbLinetypeTableRecord
2
DASHED
70
0
3
Dashed __ __ __ __ __ __ __ __ __ __ __ __ __ _
72
65
73
2
40
0.75
49
0.5
74
0
49
-0.25
74
0
0
ENDTAB
0
TABLE
2
LAYER
5
2
100
AcDbSymbolTable
70
2
0
LAYER
5
50
100
AcDbSymbolTableRecord
100
AcDbLayerTableRecord
2
0
70
0
62
7
6
CONTINUOUS
0
ENDTAB
0
TABLE
2
STYLE
5
3
100
AcDbSymbolTable
70
1
0
STYLE
5
11
100
AcDbSymbolTableRecord
100
AcDbTextStyleTableRecord
2
STANDARD
70
0
0
ENDTAB
0
TABLE
2
VIEW
5
6
100
AcDbSymbolTable
70
0
0
ENDTAB
0
TABLE
2
UCS
5
7
100
AcDbSymbolTable
70
0
0
ENDTAB
0
TABLE
2
APPID
5
9
100
AcDbSymbolTable
70
2
0
APPID
5
12
100
AcDbSymbolTableRecord
100
AcDbRegAppTableRecord
2
ACAD
70
0
0
ENDTAB
0
TABLE
2
DIMSTYLE
5
A
100
AcDbSymbolTable
70
1
0
ENDTAB
0
TABLE
2
BLOCK_RECORD
5
1
100
AcDbSymbolTable
70
1
0
BLOCK_RECORD
5
1F
100
AcDbSymbolTableRecord
100
AcDbBlockTableRecord
2
*MODEL_SPACE
0
BLOCK_RECORD
5
1B
100
AcDbSymbolTableRecord
100
AcDbBlockTableRecord
2
*PAPER_SPACE
0
ENDTAB
0
ENDSEC
0
SECTION
2
BLOCKS
0
BLOCK
5
20
100
AcDbEntity
100
AcDbBlockBegin
2
*MODEL_SPACE
0
ENDBLK
5
21
100
AcDbEntity
100
AcDbBlockEnd
0
BLOCK
5
1C
100
AcDbEntity
100
AcDbBlockBegin
2
*PAPER_SPACE
0
ENDBLK
5
1D
100
AcDbEntity
100
AcDbBlockEnd
0
ENDSEC
0
SECTION
2
ENTITIES
0
POINT
5
100
100
AcDbEntity
8
0
100
AcDbPoint
10
0
20
0
30
0
0
POINT
5
101
100
AcDbEntity
8
0
100
AcDbPoint
10
-42.259999999999998
20
-24.3675
30
0
0
LWPOLYLINE
5
102
100
AcDbEntity
8
0
100
AcDbPolyline
90
16
70
1
43
0.0
10
39.260002007242292
20
-24.367501157394141
42
0.41421356237309809
10
42.260002007242292
20
-21.367501157394145
10
42.260002007242292
20
21.367501157394145
42
0.41421356237309764
10
39.260002007242285
20
24.367501157394145
10
30.330000746312674
20
24.367501157394145
10
30.330002007217082
20
23.067501157396478
10
35.000002007242287
20
23.067501157398059
10
35.000002007242294
20
-3.4324988426034158
10
15.000002007242298
20
-3.4324988426221021
10
15.000002007242285
20
23.067501157393483
10
19.670002007243635
20
23.067501157394364
10
19.670000746339383
20
24.367501157394145
10
-39.260002007242292
20
24.367501157394145
42
0.41421356237309809
10
-42.260002007242292
20
21.367501157394145
10
-42.260002007242292
20
-21.367501157394145
42
0.41421356237309764
10
-39.260002007242285
20
-24.367501157394145
0
CIRCLE
5
103
100
AcDbEntity
8
0
100
AcDbCircle
10
38.260001808342366
20
-0.099499999994290628
30
0
40
1.5249999999999999
210
0
220
0
230
1
0
CIRCLE
5
104
100
AcDbEntity
8
0
100
AcDbCircle
10
-38.260000000000012
20
-20.3675
30
0
40
1.7500000000000002
210
0
220
0
230
1
0
CIRCLE
5
105
100
AcDbEntity
8
0
100
AcDbCircle
10
-38.260000000000005
20
20.367500000000017
30
0
40
1.7500000000000002
210
0
220
0
230
1
0
CIRCLE
5
106
100
AcDbEntity
8
0
100
AcDbCircle
10
38.260000000042368
20
20.367500000006451
30
0
40
1.7500000000000002
210
0
220
0
230
1
0
CIRCLE
5
107
100
AcDbEntity
8
0
100
AcDbCircle
10
-38.260000000000012
20
-0.099499999999999034
30
0
40
1.5249999999999999
210
0
220
0
230
1
0
CIRCLE
5
108
100
AcDbEntity
8
0
100
AcDbCircle
10
38.260002007223378
20
-20.367501157394294
30
0
40
1.7500000000000002
210
0
220
0
230
1
0
LWPOLYLINE
5
109
100
AcDbEntity
8
0
100
AcDbPolyline
90
8
70
1
43
0.0
10
16.524997992757726
20
-9.1875011573942924
42
0.41421356237309465
10
15.024997992757726
20
-7.6875011573942906
10
4.0249979927577089
20
-7.6875011573942889
42
0.41421356237309503
10
2.5249979927577142
20
-9.1875011573942835
10
2.524997992757708
20
-12.187501157394289
42
0.41421356237309503
10
4.024997992757708
20
-13.687501157394289
10
15.02499799275772
20
-13.687501157394291
42
0.41421356237309681
10
16.524997992757712
20
-12.187501157394291
0
LWPOLYLINE
5
110
100
AcDbEntity
8
0
100
AcDbPolyline
90
8
70
1
43
0.0
10
-35.57500200724229
20
-12.187501157394289
42
0.41421356237309503
10
-34.075002007242297
20
-13.687501157394289
10
-23.075002007242283
20
-13.687501157394291
42
0.41421356237309681
10
-21.575002007242293
20
-12.187501157394291
10
-21.575002007242286
20
-9.1875011573942782
42
0.41421356237309337
10
-23.075002007242283
20
-7.6875011573942871
10
-34.075002007242297
20
-7.6875011573942871
42
0.41421356237309503
10
-35.57500200724229
20
-9.1875011573942889
0
LWPOLYLINE
5
111
100
AcDbEntity
8
0
100
AcDbPolyline
90
8
70
1
43
0.0
10
-15.025002007242287
20
-7.6875011573942844
42
0.41421356237309548
10
-16.525002007242289
20
-9.1875011573942835
10
-16.525002007242293
20
-12.187501157394287
42
0.41421356237309503
10
-15.025002007242293
20
-13.687501157394289
10
-4.0250020072422927
20
-13.687501157394291
42
0.41421356237309531
10
-2.5250020072422923
20
-12.187501157394291
10
-2.5250020072422883
20
-9.1875011573942924
42
0.41421356237309531
10
-4.025002007242291
20
-7.6875011573942906
0
LWPOLYLINE
5
112
100
AcDbEntity
8
0
100
AcDbPolyline
90
8
70
1
43
0.0
10
23.074997992757709
20
-13.687501157394282
10
34.074997992757716
20
-13.687501157394292
42
0.41421356237309631
10
35.574997992757716
20
-12.187501157394287
10
35.574997992757709
20
-9.1875011573942871
42
0.41421356237309503
10
34.074997992757709
20
-7.6875011573942889
10
23.074997992757705
20
-7.6875011573942844
42
0.41421356237309531
10
21.574997992757709
20
-9.18750115739428
10
21.574997992757709
20
-12.187501157394284
42
0.41421356237309503
0
LWPOLYLINE
5
113
100
AcDbEntity
8
0
100
AcDbPolyline
90
8
70
1
43
0.0
10
-18.690002007242292
20
4.8975011573941618
10
-18.690002007242292
20
13.897501157394153
42
0.41421356237309503
10
-21.690002007242288
20
16.897501157394149
10
-34.690002007242299
20
16.897501157394142
42
0.4142135623730937
10
-37.690002007242292
20
13.897501157394146
10
-37.690002007242292
20
4.8975011573941618
42
0.41421356237309437
10
-34.690002007242292
20
1.8975011573941658
10
-21.690002007242285
20
1.8975011573941676
42
0.41421356237309515
0
ENDSEC
0
SECTION
2
OBJECTS
0
DICTIONARY
5
C
100
AcDbDictionary
3
ACAD_GROUP
350
D
3
ACAD_MLINESTYLE
350
17
0
DICTIONARY
5
D
100
AcDbDictionary
0
DICTIONARY
5
1A
330
C
100
AcDbDictionary
0
DICTIONARY
5
17
100
AcDbDictionary
0
ENDSEC
0
EOF
