0
SECTION
2
HEADER
9
$INSUNITS
70
4
9
$ACADVER
1
AC1014
9
$HANDSEED
5
FFFF
0
ENDSEC
0
SECTION
2
TABLES
0
TABLE
2
VPORT
5
8
100
AcDbSymbolTable
0
ENDTAB
0
TABLE
2
LTYPE
5
5
100
AcDbSymbolTable
0
LTYPE
5
14
100
AcDbSymbolTableRecord
100
AcDbLinetypeTableRecord
2
BYBLOCK
70
0
0
LTYPE
5
15
100
AcDbSymbolTableRecord
100
AcDbLinetypeTableRecord
2
BYLAYER
70
0
0
LTYPE
5
16
100
AcDbSymbolTableRecord
100
AcDbLinetypeTableRecord
2
DASHED
70
0
3
Dashed __ __ __ __ __ __ __ __ __ __ __ __ __ _
72
65
73
2
40
0.75
49
0.5
74
0
49
-0.25
74
0
0
ENDTAB
0
TABLE
2
LAYER
5
2
100
AcDbSymbolTable
70
2
0
LAYER
5
50
100
AcDbSymbolTableRecord
100
AcDbLayerTableRecord
2
0
70
0
62
7
6
CONTINUOUS
0
ENDTAB
0
TABLE
2
STYLE
5
3
100
AcDbSymbolTable
70
1
0
STYLE
5
11
100
AcDbSymbolTableRecord
100
AcDbTextStyleTableRecord
2
STANDARD
70
0
0
ENDTAB
0
TABLE
2
VIEW
5
6
100
AcDbSymbolTable
70
0
0
ENDTAB
0
TABLE
2
UCS
5
7
100
AcDbSymbolTable
70
0
0
ENDTAB
0
TABLE
2
APPID
5
9
100
AcDbSymbolTable
70
2
0
APPID
5
12
100
AcDbSymbolTableRecord
100
AcDbRegAppTableRecord
2
ACAD
70
0
0
ENDTAB
0
TABLE
2
DIMSTYLE
5
A
100
AcDbSymbolTable
70
1
0
ENDTAB
0
TABLE
2
BLOCK_RECORD
5
1
100
AcDbSymbolTable
70
1
0
BLOCK_RECORD
5
1F
100
AcDbSymbolTableRecord
100
AcDbBlockTableRecord
2
*MODEL_SPACE
0
BLOCK_RECORD
5
1B
100
AcDbSymbolTableRecord
100
AcDbBlockTableRecord
2
*PAPER_SPACE
0
ENDTAB
0
ENDSEC
0
SECTION
2
BLOCKS
0
BLOCK
5
20
100
AcDbEntity
100
AcDbBlockBegin
2
*MODEL_SPACE
0
ENDBLK
5
21
100
AcDbEntity
100
AcDbBlockEnd
0
BLOCK
5
1C
100
AcDbEntity
100
AcDbBlockBegin
2
*PAPER_SPACE
0
ENDBLK
5
1D
100
AcDbEntity
100
AcDbBlockEnd
0
ENDSEC
0
SECTION
2
ENTITIES
0
POINT
5
100
100
AcDbEntity
8
0
100
AcDbPoint
10
-27.987770573317043
20
-10.682501053094139
30
0
0
POINT
5
101
100
AcDbEntity
8
0
100
AcDbPoint
10
-8.9377705733240091
20
-10.682501053092739
30
0
0
POINT
5
102
100
AcDbEntity
8
0
100
AcDbPoint
10
10.112229426679498
20
-10.682501053094075
30
0
0
POINT
5
103
100
AcDbEntity
8
0
100
AcDbPoint
10
29.162229426679517
20
-10.682501053094672
30
0
0
POINT
5
104
100
AcDbEntity
8
0
100
AcDbPoint
10
-27.872774483517048
20
9.3975011574058627
30
0
0
POINT
5
105
100
AcDbEntity
8
0
100
AcDbPoint
10
2.2272255164829513
20
9.3875011574058611
30
0
0
CIRCLE
5
106
100
AcDbEntity
8
0
100
AcDbCircle
10
38.847229530982958
20
20.367500000000014
30
0
40
1.7500000000000002
210
0
220
0
230
1
0
CIRCLE
5
107
100
AcDbEntity
8
0
100
AcDbCircle
10
38.847229530982958
20
-0.099499999994168142
30
0
40
1.5249999999999999
210
0
220
0
230
1
0
CIRCLE
5
108
100
AcDbEntity
8
0
100
AcDbCircle
10
-37.672774483517045
20
-20.3675
30
0
40
1.7500000000000002
210
0
220
0
230
1
0
CIRCLE
5
109
100
AcDbEntity
8
0
100
AcDbCircle
10
-37.672774483517045
20
20.367500000000017
30
0
40
1.7500000000000002
210
0
220
0
230
1
0
LWPOLYLINE
5
110
100
AcDbEntity
8
0
100
AcDbPolyline
90
8
70
1
43
0.0
10
-38.672774483517067
20
24.367501157405862
42
0.41421356237309503
10
-41.672774483517045
20
21.367501157405879
10
-41.672774483517045
20
-21.367501157394155
42
0.41421356237309503
10
-38.672774483517067
20
-24.367501157394145
10
39.847229530982972
20
-24.367501157394141
42
0.41421356237309503
10
42.847229530982958
20
-21.367501157394166
10
42.847229530982958
20
21.367501157405869
42
0.41421356237309503
10
39.847229530982958
20
24.367501157405862
0
CIRCLE
5
111
100
AcDbEntity
8
0
100
AcDbCircle
10
-37.672774483517045
20
-0.099499999999999034
30
0
40
1.5249999999999999
210
0
220
0
230
1
0
CIRCLE
5
112
100
AcDbEntity
8
0
100
AcDbCircle
10
38.847229530982958
20
-20.367501157394166
30
0
40
1.7500000000000002
210
0
220
0
230
1
0
LWPOLYLINE
5
113
100
AcDbEntity
8
0
100
AcDbPolyline
90
4
70
1
43
0.0
10
-20.98777046901704
20
-3.682500948794142
10
-34.987770677617036
20
-3.6825009487941429
10
-34.987770677617036
20
-17.682501157394142
10
-20.987770469017036
20
-17.682501157394142
0
LINE
5
114
100
AcDbEntity
8
0
100
AcDbLine
10
-20.98777046901704
20
-3.682500948794142
30
0
11
-34.987770677617036
21
-17.682501157394142
31
0
6
DASHED
0
LINE
5
115
100
AcDbEntity
8
0
100
AcDbLine
10
-34.987770677617036
20
-3.6825009487941429
30
0
11
-20.987770469017036
21
-17.682501157394142
31
0
6
DASHED
0
LWPOLYLINE
5
116
100
AcDbEntity
8
0
100
AcDbPolyline
90
4
70
1
43
0.0
10
-1.9377704690261321
20
-17.682501157393567
10
-15.937770677625604
20
-17.682501157394547
10
-15.937770677627068
20
-3.6825009487935887
10
-1.9377704690294242
20
-3.6825009487942353
0
LINE
5
117
100
AcDbEntity
8
0
100
AcDbLine
10
-1.9377704690261321
20
-17.682501157393567
30
0
11
-15.937770677627068
21
-3.6825009487935887
31
0
6
DASHED
0
LINE
5
118
100
AcDbEntity
8
0
100
AcDbLine
10
-15.937770677625604
20
-17.682501157394547
30
0
11
-1.9377704690294242
21
-3.6825009487942353
31
0
6
DASHED
0
LWPOLYLINE
5
119
100
AcDbEntity
8
0
100
AcDbPolyline
90
4
70
1
43
0.0
10
17.11222953097931
20
-17.682501157394142
10
3.1122293223796897
20
-17.682501157394135
10
3.112229322379731
20
-3.6825009487941278
10
17.112229530979302
20
-3.6825009487941314
0
LINE
5
120
100
AcDbEntity
8
0
100
AcDbLine
10
17.11222953097931
20
-17.682501157394142
30
0
11
3.112229322379731
21
-3.6825009487941278
31
0
6
DASHED
0
LINE
5
121
100
AcDbEntity
8
0
100
AcDbLine
10
3.1122293223796897
20
-17.682501157394135
30
0
11
17.112229530979302
21
-3.6825009487941314
31
0
6
DASHED
0
LWPOLYLINE
5
122
100
AcDbEntity
8
0
100
AcDbPolyline
90
4
70
1
43
0.0
10
36.162229530982955
20
-17.682501157394142
10
22.162229322376348
20
-17.682501157394142
10
22.162229322376351
20
-3.6825009487941429
10
36.162229530982955
20
-3.6825009487941429
0
LINE
5
123
100
AcDbEntity
8
0
100
AcDbLine
10
36.162229530982955
20
-17.682501157394142
30
0
11
22.162229322376351
21
-3.6825009487941429
31
0
6
DASHED
0
LINE
5
124
100
AcDbEntity
8
0
100
AcDbLine
10
22.162229322376348
20
-17.682501157394142
30
0
11
36.162229530982955
21
-3.6825009487941429
31
0
6
DASHED
0
LWPOLYLINE
5
125
100
AcDbEntity
8
0
100
AcDbPolyline
90
4
70
1
43
0.0
10
-21.472774483517043
20
2.8975011574058627
10
-34.272774483517054
20
2.8975011574058627
10
-34.272774483517054
20
15.897501157405863
10
-21.472774483517043
20
15.897501157405863
0
LINE
5
126
100
AcDbEntity
8
0
100
AcDbLine
10
-21.472774483517043
20
2.8975011574058627
30
0
11
-34.272774483517054
21
15.897501157405863
31
0
6
DASHED
0
LINE
5
127
100
AcDbEntity
8
0
100
AcDbLine
10
-34.272774483517054
20
2.8975011574058627
30
0
11
-21.472774483517043
21
15.897501157405863
31
0
6
DASHED
0
LWPOLYLINE
5
128
100
AcDbEntity
8
0
100
AcDbPolyline
90
4
70
1
43
0.0
10
13.727225516482953
20
3.3125011574058649
10
-9.2727744835170505
20
3.3125011574058649
10
-9.2727744835170505
20
15.462501157405864
10
13.727225516482953
20
15.462501157405864
0
LINE
5
129
100
AcDbEntity
8
0
100
AcDbLine
10
13.727225516482953
20
3.3125011574058649
30
0
11
-9.2727744835170505
21
15.462501157405864
31
0
6
DASHED
0
LINE
5
130
100
AcDbEntity
8
0
100
AcDbLine
10
-9.2727744835170505
20
3.3125011574058649
30
0
11
13.727225516482953
21
15.462501157405864
31
0
6
DASHED
0
ENDSEC
0
SECTION
2
OBJECTS
0
DICTIONARY
5
C
100
AcDbDictionary
3
ACAD_GROUP
350
D
3
ACAD_MLINESTYLE
350
17
0
DICTIONARY
5
D
100
AcDbDictionary
0
DICTIONARY
5
1A
330
C
100
AcDbDictionary
0
DICTIONARY
5
17
100
AcDbDictionary
0
ENDSEC
0
EOF
