0
SECTION
2
HEADER
9
$INSUNITS
70
4
9
$ACADVER
1
AC1014
9
$HANDSEED
5
FFFF
0
ENDSEC
0
SECTION
2
TABLES
0
TABLE
2
VPORT
5
8
100
AcDbSymbolTable
0
ENDTAB
0
TABLE
2
LTYPE
5
5
100
AcDbSymbolTable
0
LTYPE
5
14
100
AcDbSymbolTableRecord
100
AcDbLinetypeTableRecord
2
BYBLOCK
70
0
0
LTYPE
5
15
100
AcDbSymbolTableRecord
100
AcDbLinetypeTableRecord
2
BYLAYER
70
0
0
LTYPE
5
16
100
AcDbSymbolTableRecord
100
AcDbLinetypeTableRecord
2
DASHED
70
0
3
Dashed __ __ __ __ __ __ __ __ __ __ __ __ __ _
72
65
73
2
40
0.75
49
0.5
74
0
49
-0.25
74
0
0
ENDTAB
0
TABLE
2
LAYER
5
2
100
AcDbSymbolTable
70
2
0
LAYER
5
50
100
AcDbSymbolTableRecord
100
AcDbLayerTableRecord
2
0
70
0
62
7
6
CONTINUOUS
0
ENDTAB
0
TABLE
2
STYLE
5
3
100
AcDbSymbolTable
70
1
0
STYLE
5
11
100
AcDbSymbolTableRecord
100
AcDbTextStyleTableRecord
2
STANDARD
70
0
0
ENDTAB
0
TABLE
2
VIEW
5
6
100
AcDbSymbolTable
70
0
0
ENDTAB
0
TABLE
2
UCS
5
7
100
AcDbSymbolTable
70
0
0
ENDTAB
0
TABLE
2
APPID
5
9
100
AcDbSymbolTable
70
2
0
APPID
5
12
100
AcDbSymbolTableRecord
100
AcDbRegAppTableRecord
2
ACAD
70
0
0
ENDTAB
0
TABLE
2
DIMSTYLE
5
A
100
AcDbSymbolTable
70
1
0
ENDTAB
0
TABLE
2
BLOCK_RECORD
5
1
100
AcDbSymbolTable
70
1
0
BLOCK_RECORD
5
1F
100
AcDbSymbolTableRecord
100
AcDbBlockTableRecord
2
*MODEL_SPACE
0
BLOCK_RECORD
5
1B
100
AcDbSymbolTableRecord
100
AcDbBlockTableRecord
2
*PAPER_SPACE
0
ENDTAB
0
ENDSEC
0
SECTION
2
BLOCKS
0
BLOCK
5
20
100
AcDbEntity
100
AcDbBlockBegin
2
*MODEL_SPACE
0
ENDBLK
5
21
100
AcDbEntity
100
AcDbBlockEnd
0
BLOCK
5
1C
100
AcDbEntity
100
AcDbBlockBegin
2
*PAPER_SPACE
0
ENDBLK
5
1D
100
AcDbEntity
100
AcDbBlockEnd
0
ENDSEC
0
SECTION
2
ENTITIES
0
POINT
5
100
100
AcDbEntity
8
0
100
AcDbPoint
10
1.0651110701538071
20
9.3774942242619055
30
0
0
POINT
5
101
100
AcDbEntity
8
0
100
AcDbPoint
10
-28.189999999999973
20
9.4035196589247683
30
0
0
POINT
5
102
100
AcDbEntity
8
0
100
AcDbPoint
10
-28.189999999999973
20
9.4035196589247683
30
0
0
POINT
5
103
100
AcDbEntity
8
0
100
AcDbPoint
10
42.260002007242292
20
-24.367501157394145
30
0
0
POINT
5
104
100
AcDbEntity
8
0
100
AcDbPoint
10
-42.260002007242292
20
24.367501157394145
30
0
0
POINT
5
105
100
AcDbEntity
8
0
100
AcDbPoint
10
-28.189999999999973
20
9.4035196589247683
30
0
0
POINT
5
106
100
AcDbEntity
8
0
100
AcDbPoint
10
-28.189999999999973
20
9.4035196589247683
30
0
0
POINT
5
107
100
AcDbEntity
8
0
100
AcDbPoint
10
28.574999999999989
20
-10.682500000000001
30
0
0
POINT
5
108
100
AcDbEntity
8
0
100
AcDbPoint
10
9.5249999999999879
20
-10.682500000000005
30
0
0
POINT
5
109
100
AcDbEntity
8
0
100
AcDbPoint
10
-28.575000000000014
20
-10.682500000000006
30
0
0
POINT
5
110
100
AcDbEntity
8
0
100
AcDbPoint
10
-9.5250000000000128
20
-10.682500000000006
30
0
0
POINT
5
111
100
AcDbEntity
8
0
100
AcDbPoint
10
28.574999999999989
20
-10.682500000000001
30
0
0
POINT
5
112
100
AcDbEntity
8
0
100
AcDbPoint
10
9.5249999999999879
20
-10.682500000000005
30
0
0
POINT
5
113
100
AcDbEntity
8
0
100
AcDbPoint
10
-9.5250000000000128
20
-10.682500000000006
30
0
0
POINT
5
114
100
AcDbEntity
8
0
100
AcDbPoint
10
-28.575000000000014
20
-10.682500000000006
30
0
0
CIRCLE
5
115
100
AcDbEntity
8
0
100
AcDbCircle
10
-38.260000000000005
20
20.367500000000017
30
0
40
1.5999999999999981
210
0
220
0
230
1
0
CIRCLE
5
116
100
AcDbEntity
8
0
100
AcDbCircle
10
38.260000000000005
20
20.367500000000014
30
0
40
1.5999999999999981
210
0
220
0
230
1
0
CIRCLE
5
117
100
AcDbEntity
8
0
100
AcDbCircle
10
38.260000000000012
20
-20.367500000000007
30
0
40
1.5999999999999981
210
0
220
0
230
1
0
CIRCLE
5
118
100
AcDbEntity
8
0
100
AcDbCircle
10
-38.260000000000012
20
-20.3675
30
0
40
1.5999999999999981
210
0
220
0
230
1
0
LWPOLYLINE
5
119
100
AcDbEntity
8
0
100
AcDbPolyline
90
12
70
1
43
0.0
10
13.999999999999989
20
22.9575
10
35.999999999999993
20
22.9575
10
36.000000536441803
20
15.000000223517418
10
41.210000536441804
20
15.000000223517418
10
41.210000536441804
20
3.6500002235174178
10
36.000000536441803
20
3.6500002235174178
10
35.999999999999993
20
-2.0425000000000026
10
13.999999999999989
20
-2.0425000000000026
10
13.999999999999989
20
1.1274999999999977
10
-14.435000000000002
20
1.1274999999999977
10
-14.435000000000004
20
17.627499999999998
10
14.000000208616257
20
17.627499999999998
0
CIRCLE
5
120
100
AcDbEntity
8
0
100
AcDbCircle
10
-38.260000000000012
20
-0.099499999999999034
30
0
40
1.600000000000001
210
0
220
0
230
1
0
CIRCLE
5
121
100
AcDbEntity
8
0
100
AcDbCircle
10
38.260001808374781
20
-0.099500000000083411
30
0
40
1.5999999999999988
210
0
220
0
230
1
0
LWPOLYLINE
5
122
100
AcDbEntity
8
0
100
AcDbPolyline
90
8
70
1
43
0.0
10
-39.260002007242292
20
24.367501157394145
10
39.260002007242285
20
24.367501157394145
42
-0.41421356237309764
10
42.260002007242292
20
21.367501157394145
10
42.260002007242292
20
-21.367501157394145
42
-0.41421356237309809
10
39.260002007242292
20
-24.367501157394141
10
-39.260002007242285
20
-24.367501157394145
42
-0.41421356237309764
10
-42.260002007242292
20
-21.367501157394145
10
-42.260002007242292
20
21.367501157394145
42
-0.41421356237309809
0
LWPOLYLINE
5
123
100
AcDbEntity
8
0
100
AcDbPolyline
90
8
70
1
43
0.0
10
-22.189999999999976
20
1.4035196589247678
10
-34.189999999999969
20
1.4035196589247689
42
-0.41421356237309459
10
-36.189999999999969
20
3.4035196589247674
10
-36.189999999999969
20
15.403519658924766
42
-0.41421356237309503
10
-34.189999999999969
20
17.403519658924768
10
-22.189999999999976
20
17.403519658924765
42
-0.41421356237309437
10
-20.189999999999976
20
15.403519658924768
10
-20.189999999999976
20
3.40351965892477
42
-0.41421356237309492
0
LINE
5
124
100
AcDbEntity
8
0
100
AcDbLine
10
-20.189999999999976
20
1.4035196589247678
30
0
11
-36.189999999999969
21
17.403519658924768
31
0
6
DASHED
0
LINE
5
125
100
AcDbEntity
8
0
100
AcDbLine
10
-36.189999999999969
20
1.4035196589247678
30
0
11
-20.189999999999976
21
17.403519658924768
31
0
6
DASHED
0
LWPOLYLINE
5
126
100
AcDbEntity
8
0
100
AcDbPolyline
90
4
70
1
43
0.0
10
20.574999999999992
20
-18.682500000000001
10
36.574999999999989
20
-18.682500000000001
10
36.574999999999989
20
-2.682500000000001
10
20.574999999999992
20
-2.682500000000001
0
LINE
5
127
100
AcDbEntity
8
0
100
AcDbLine
10
20.574999999999992
20
-18.682500000000001
30
0
11
36.574999999999989
21
-2.682500000000001
31
0
6
DASHED
0
LINE
5
128
100
AcDbEntity
8
0
100
AcDbLine
10
36.574999999999989
20
-18.682500000000001
30
0
11
20.574999999999992
21
-2.682500000000001
31
0
6
DASHED
0
LWPOLYLINE
5
129
100
AcDbEntity
8
0
100
AcDbPolyline
90
4
70
1
43
0.0
10
1.5249999999999875
20
-18.682500000000001
10
17.524999999999988
20
-18.682500000000001
10
17.524999999999988
20
-2.6825000000000054
10
1.5249999999999875
20
-2.6825000000000054
0
LINE
5
130
100
AcDbEntity
8
0
100
AcDbLine
10
1.5249999999999875
20
-18.682500000000001
30
0
11
17.524999999999988
21
-2.6825000000000054
31
0
6
DASHED
0
LINE
5
131
100
AcDbEntity
8
0
100
AcDbLine
10
17.524999999999988
20
-18.682500000000001
30
0
11
1.5249999999999875
21
-2.6825000000000054
31
0
6
DASHED
0
LWPOLYLINE
5
132
100
AcDbEntity
8
0
100
AcDbPolyline
90
4
70
1
43
0.0
10
-17.525000000000013
20
-18.682500000000005
10
-1.5250000000000119
20
-18.682500000000005
10
-1.5250000000000119
20
-2.6825000000000054
10
-17.525000000000013
20
-2.6825000000000054
0
LINE
5
133
100
AcDbEntity
8
0
100
AcDbLine
10
-17.525000000000013
20
-18.682500000000005
30
0
11
-1.5250000000000119
21
-2.6825000000000054
31
0
6
DASHED
0
LINE
5
134
100
AcDbEntity
8
0
100
AcDbLine
10
-1.5250000000000119
20
-18.682500000000005
30
0
11
-17.525000000000013
21
-2.6825000000000054
31
0
6
DASHED
0
LWPOLYLINE
5
135
100
AcDbEntity
8
0
100
AcDbPolyline
90
4
70
1
43
0.0
10
-36.575000000000017
20
-18.682500000000005
10
-20.57500000000001
20
-18.682500000000005
10
-20.57500000000001
20
-2.6825000000000054
10
-36.575000000000017
20
-2.6825000000000054
0
LINE
5
136
100
AcDbEntity
8
0
100
AcDbLine
10
-36.575000000000017
20
-18.682500000000005
30
0
11
-20.57500000000001
21
-2.6825000000000054
31
0
6
DASHED
0
LINE
5
137
100
AcDbEntity
8
0
100
AcDbLine
10
-20.57500000000001
20
-18.682500000000005
30
0
11
-36.575000000000017
21
-2.6825000000000054
31
0
6
DASHED
0
ENDSEC
0
SECTION
2
OBJECTS
0
DICTIONARY
5
C
100
AcDbDictionary
3
ACAD_GROUP
350
D
3
ACAD_MLINESTYLE
350
17
0
DICTIONARY
5
D
100
AcDbDictionary
0
DICTIONARY
5
1A
330
C
100
AcDbDictionary
0
DICTIONARY
5
17
100
AcDbDictionary
0
ENDSEC
0
EOF
